# xmcd
#
# Track frame offsets:
# 150
# 18232
# 35730
# 50152
# 68177
# 79042
# 89160
# 100412
# 114127
# 123804
# 137587
# 155252
# 166555
# 177545
# 193222
#
# Disc length: 2742 seconds
#
#
# Revision: 3
# Processed by: cddbd v1.5.1PL0 Copyright (c) Steve Scherf et al.
# Submitted via: FreeRIP 2.90 
#
DISCID=c60ab40f
DTITLE=Various Artist - Country Christmas (Volume 3) - Jingle Bells (Sampler)
DYEAR=2002
DGENRE=Country
TTITLE0=Brenda Lee - Silent Night
TTITLE1=Glen Campbell - Carol Medley
TTITLE2=Billy Walker - The Christmas Song
TTITLE3=Bill Anderson - It Came Upon A Midnight Clear
TTITLE4=Porter Wagoner - Jingle Bells
TTITLE5=Merle Haggard - Santa Claus And Popcorn
TTITLE6=Melba Montgomery - Hark The Herald Angels Sing
TTITLE7=Waylon Jennings - Away In Hanger
TTITLE8=Joe Stampley - Jingle Bill Rock
TTITLE9=Crystal Gayle - Halleluja
TTITLE10=Paul Todd - Carol Of The Bells
TTITLE11=Skeeter Davis - Santa Claus Is Coming To Town
TTITLE12=Kitty Wells - Here Comes Santa Claus
TTITLE13=Boxcar Willie - Don't It Make You Want To Be A Kid Again
TTITLE14=The Lettermen - Go Tell It On The Mountain - We Wish You Merry Christmas
EXTD=YEAR: 2002
EXTT0=
EXTT1=
EXTT2=
EXTT3=
EXTT4=
EXTT5=
EXTT6=
EXTT7=
EXTT8=
EXTT9=
EXTT10=
EXTT11=
EXTT12=
EXTT13=
EXTT14=
PLAYORDER=
